<svg preserveAspectRatio="xMidYMid meet" data-bbox="33 29 133.332 141.667" viewBox="33 29 133.332 141.667" height="200" width="200" xmlns="http://www.w3.org/2000/svg" data-type="shape" role="presentation" aria-hidden="true" aria-label="" fill="white">
    <g>
        <path d="M153.832 170.667H45.507c-6.9 0-12.5-5.609-12.5-12.5v-5.6c-.042-.792-.609-23.442 28.308-32.942l15.842-5.258c2.058-.684 3.4-2.65 3.116-4.6a5.827 5.827 0 0 0-1.775-3.4C72.39 100.7 64.957 90.533 64.257 74.208c-1.067-14.758 2.166-26.341 9.6-34.341C83.49 29.525 96.748 29 99.315 29c3.267 0 16.525.525 26.158 10.867 7.434 7.991 10.667 19.583 9.6 34.458-.7 16.208-8.133 26.375-14.233 32.033a5.858 5.858 0 0 0-1.842 4.225c-.016 1.575 1.284 3.159 3.084 3.75l15.925 5.292c28.925 9.5 28.358 32.15 28.316 33.108l.009 5.434c0 6.891-5.609 12.5-12.5 12.5Z" fill-rule="evenodd"></path>
    </g>
</svg>